<mxfile host="Electron" modified="2024-04-02T16:29:52.056Z" agent="Mozilla/5.0 (Windows NT 10.0; Win64; x64) AppleWebKit/537.36 (KHTML, like Gecko) draw.io/22.0.3 Chrome/114.0.5735.289 Electron/25.8.4 Safari/537.36" etag="m6AXOer5P-kQ2qqvXA2f" version="22.0.3" type="device">
  <diagram name="Pagina-1" id="YzWQodzD78JNeDAUSXoz">
    <mxGraphModel dx="1172" dy="549" grid="1" gridSize="10" guides="1" tooltips="1" connect="1" arrows="1" fold="1" page="1" pageScale="1" pageWidth="827" pageHeight="1169" math="0" shadow="0">
      <root>
        <mxCell id="0" />
        <mxCell id="1" parent="0" />
        <mxCell id="3lgGTsM1d1NOESyLPiWt-7" style="edgeStyle=orthogonalEdgeStyle;rounded=0;orthogonalLoop=1;jettySize=auto;html=1;exitX=0;exitY=0.5;exitDx=0;exitDy=0;" parent="1" source="3lgGTsM1d1NOESyLPiWt-1" target="3lgGTsM1d1NOESyLPiWt-2" edge="1">
          <mxGeometry relative="1" as="geometry" />
        </mxCell>
        <mxCell id="3lgGTsM1d1NOESyLPiWt-8" style="edgeStyle=orthogonalEdgeStyle;rounded=0;orthogonalLoop=1;jettySize=auto;html=1;exitX=0;exitY=0.5;exitDx=0;exitDy=0;" parent="1" source="3lgGTsM1d1NOESyLPiWt-1" target="3lgGTsM1d1NOESyLPiWt-3" edge="1">
          <mxGeometry relative="1" as="geometry" />
        </mxCell>
        <mxCell id="3lgGTsM1d1NOESyLPiWt-10" style="edgeStyle=orthogonalEdgeStyle;rounded=0;orthogonalLoop=1;jettySize=auto;html=1;exitX=1;exitY=0.5;exitDx=0;exitDy=0;" parent="1" source="3lgGTsM1d1NOESyLPiWt-1" target="3lgGTsM1d1NOESyLPiWt-5" edge="1">
          <mxGeometry relative="1" as="geometry" />
        </mxCell>
        <mxCell id="3lgGTsM1d1NOESyLPiWt-14" style="edgeStyle=orthogonalEdgeStyle;rounded=0;orthogonalLoop=1;jettySize=auto;html=1;exitX=1;exitY=0.5;exitDx=0;exitDy=0;" parent="1" source="3lgGTsM1d1NOESyLPiWt-1" target="3lgGTsM1d1NOESyLPiWt-4" edge="1">
          <mxGeometry relative="1" as="geometry" />
        </mxCell>
        <mxCell id="3lgGTsM1d1NOESyLPiWt-1" value="Ruoli dei re" style="ellipse;whiteSpace=wrap;html=1;" parent="1" vertex="1">
          <mxGeometry x="300" y="130" width="120" height="80" as="geometry" />
        </mxCell>
        <mxCell id="3lgGTsM1d1NOESyLPiWt-2" value="Capi guerrieri e aura di sacralità (= esseri divini)" style="rounded=0;whiteSpace=wrap;html=1;" parent="1" vertex="1">
          <mxGeometry x="50" y="250" width="100" height="60" as="geometry" />
        </mxCell>
        <mxCell id="3lgGTsM1d1NOESyLPiWt-3" value="Funzionari imperiali &lt;br&gt;(=si consideravano autonomi, pur essendo al soldo della corona)" style="rounded=0;whiteSpace=wrap;html=1;" parent="1" vertex="1">
          <mxGeometry x="190" y="240" width="130" height="90" as="geometry" />
        </mxCell>
        <mxCell id="3lgGTsM1d1NOESyLPiWt-4" value="Alleati della Chiesa&lt;br&gt;(= conversione al cattolicesimo e garanti della religione)&amp;nbsp;" style="rounded=0;whiteSpace=wrap;html=1;" parent="1" vertex="1">
          <mxGeometry x="390" y="240" width="110" height="90" as="geometry" />
        </mxCell>
        <mxCell id="3lgGTsM1d1NOESyLPiWt-5" value="Successori politica romana &lt;br&gt;(=governo basato sulla personalità di chi governava)" style="rounded=0;whiteSpace=wrap;html=1;" parent="1" vertex="1">
          <mxGeometry x="560" y="240" width="120" height="90" as="geometry" />
        </mxCell>
        <mxCell id="3lgGTsM1d1NOESyLPiWt-15" value="Teodorico&lt;br&gt;- Re goto che unisce romani con goti&lt;br&gt;- Gode di cittadinanza romana&lt;br&gt;- Erige edifici a favore del culto cattolico&lt;br&gt;(da pag. 254 fino a 270)" style="rounded=0;whiteSpace=wrap;html=1;" parent="1" vertex="1">
          <mxGeometry x="160" y="360" width="210" height="130" as="geometry" />
        </mxCell>
        <mxCell id="wJ7BnbMjkZVuSpHaph-H-1" value="- Partecipazione alla vita poliica del popolo di uomini liberi&lt;br&gt;- Con funzionari del re, comandanti, vescovi&lt;br&gt;- Declino dell&#39;economia: battere moneta romana (aurea) ma con meno valore" style="rounded=0;whiteSpace=wrap;html=1;" vertex="1" parent="1">
          <mxGeometry x="430" y="360" width="210" height="130" as="geometry" />
        </mxCell>
        <mxCell id="wJ7BnbMjkZVuSpHaph-H-7" style="edgeStyle=orthogonalEdgeStyle;rounded=0;orthogonalLoop=1;jettySize=auto;html=1;exitX=0;exitY=0.5;exitDx=0;exitDy=0;" edge="1" parent="1" source="wJ7BnbMjkZVuSpHaph-H-11" target="wJ7BnbMjkZVuSpHaph-H-12">
          <mxGeometry relative="1" as="geometry" />
        </mxCell>
        <mxCell id="wJ7BnbMjkZVuSpHaph-H-8" style="edgeStyle=orthogonalEdgeStyle;rounded=0;orthogonalLoop=1;jettySize=auto;html=1;exitX=0;exitY=0.5;exitDx=0;exitDy=0;" edge="1" parent="1" source="wJ7BnbMjkZVuSpHaph-H-11" target="wJ7BnbMjkZVuSpHaph-H-13">
          <mxGeometry relative="1" as="geometry" />
        </mxCell>
        <mxCell id="wJ7BnbMjkZVuSpHaph-H-9" style="edgeStyle=orthogonalEdgeStyle;rounded=0;orthogonalLoop=1;jettySize=auto;html=1;exitX=1;exitY=0.5;exitDx=0;exitDy=0;" edge="1" parent="1" source="wJ7BnbMjkZVuSpHaph-H-11">
          <mxGeometry relative="1" as="geometry">
            <mxPoint x="630" y="630" as="targetPoint" />
          </mxGeometry>
        </mxCell>
        <mxCell id="wJ7BnbMjkZVuSpHaph-H-10" style="edgeStyle=orthogonalEdgeStyle;rounded=0;orthogonalLoop=1;jettySize=auto;html=1;exitX=1;exitY=0.5;exitDx=0;exitDy=0;" edge="1" parent="1" source="wJ7BnbMjkZVuSpHaph-H-11" target="wJ7BnbMjkZVuSpHaph-H-14">
          <mxGeometry relative="1" as="geometry" />
        </mxCell>
        <mxCell id="wJ7BnbMjkZVuSpHaph-H-11" value="Integrazione leggi romano-barbare" style="ellipse;whiteSpace=wrap;html=1;" vertex="1" parent="1">
          <mxGeometry x="310" y="520" width="120" height="80" as="geometry" />
        </mxCell>
        <mxCell id="wJ7BnbMjkZVuSpHaph-H-12" value="Credenza nel fare giuramento a Dio e visione magica del mondo" style="rounded=0;whiteSpace=wrap;html=1;" vertex="1" parent="1">
          <mxGeometry x="40" y="640" width="120" height="80" as="geometry" />
        </mxCell>
        <mxCell id="wJ7BnbMjkZVuSpHaph-H-13" value="Delitti di sangue: faida (occhio per occhio) o risoluzioni &quot;poco amichevoli&quot; per faccende private" style="rounded=0;whiteSpace=wrap;html=1;" vertex="1" parent="1">
          <mxGeometry x="200" y="630" width="130" height="90" as="geometry" />
        </mxCell>
        <mxCell id="wJ7BnbMjkZVuSpHaph-H-14" value="Consuetudini = tradizioni di leggi scritte e orali basate su tradizioni" style="rounded=0;whiteSpace=wrap;html=1;" vertex="1" parent="1">
          <mxGeometry x="400" y="630" width="110" height="90" as="geometry" />
        </mxCell>
        <mxCell id="wJ7BnbMjkZVuSpHaph-H-15" value="Codici di legge per unificarle scritte in latino (linguaggio comune) per supremazia reale" style="rounded=0;whiteSpace=wrap;html=1;" vertex="1" parent="1">
          <mxGeometry x="570" y="630" width="120" height="90" as="geometry" />
        </mxCell>
        <mxCell id="wJ7BnbMjkZVuSpHaph-H-16" style="edgeStyle=orthogonalEdgeStyle;rounded=0;orthogonalLoop=1;jettySize=auto;html=1;exitX=0;exitY=0.5;exitDx=0;exitDy=0;" edge="1" parent="1" source="wJ7BnbMjkZVuSpHaph-H-20" target="wJ7BnbMjkZVuSpHaph-H-21">
          <mxGeometry relative="1" as="geometry" />
        </mxCell>
        <mxCell id="wJ7BnbMjkZVuSpHaph-H-17" style="edgeStyle=orthogonalEdgeStyle;rounded=0;orthogonalLoop=1;jettySize=auto;html=1;exitX=0;exitY=0.5;exitDx=0;exitDy=0;" edge="1" parent="1" source="wJ7BnbMjkZVuSpHaph-H-20" target="wJ7BnbMjkZVuSpHaph-H-22">
          <mxGeometry relative="1" as="geometry" />
        </mxCell>
        <mxCell id="wJ7BnbMjkZVuSpHaph-H-19" style="edgeStyle=orthogonalEdgeStyle;rounded=0;orthogonalLoop=1;jettySize=auto;html=1;exitX=1;exitY=0.5;exitDx=0;exitDy=0;" edge="1" parent="1" source="wJ7BnbMjkZVuSpHaph-H-20" target="wJ7BnbMjkZVuSpHaph-H-23">
          <mxGeometry relative="1" as="geometry" />
        </mxCell>
        <mxCell id="wJ7BnbMjkZVuSpHaph-H-20" value="Legami sociali" style="ellipse;whiteSpace=wrap;html=1;" vertex="1" parent="1">
          <mxGeometry x="310" y="750" width="120" height="80" as="geometry" />
        </mxCell>
        <mxCell id="wJ7BnbMjkZVuSpHaph-H-21" value="Credenza nel fare giuramento a Dio e visione magica del mondo" style="rounded=0;whiteSpace=wrap;html=1;" vertex="1" parent="1">
          <mxGeometry x="40" y="900" width="120" height="80" as="geometry" />
        </mxCell>
        <mxCell id="wJ7BnbMjkZVuSpHaph-H-22" value="Servizi del re tramite funzionari del re:&lt;br&gt;- trustis: fedeli del re&lt;br&gt;- schiavi/personale del padrone" style="rounded=0;whiteSpace=wrap;html=1;" vertex="1" parent="1">
          <mxGeometry x="220" y="890" width="130" height="90" as="geometry" />
        </mxCell>
        <mxCell id="wJ7BnbMjkZVuSpHaph-H-23" value="Economia legata alla terra:&lt;br&gt;- schiavi = prezzo dell&#39;uomo&lt;br&gt;. discrimazione etnica&lt;br&gt;- dinastie ereditarie" style="rounded=0;whiteSpace=wrap;html=1;" vertex="1" parent="1">
          <mxGeometry x="480" y="880" width="150" height="110" as="geometry" />
        </mxCell>
        <mxCell id="wJ7BnbMjkZVuSpHaph-H-30" style="edgeStyle=orthogonalEdgeStyle;rounded=0;orthogonalLoop=1;jettySize=auto;html=1;exitX=0;exitY=0.5;exitDx=0;exitDy=0;" edge="1" parent="1" source="wJ7BnbMjkZVuSpHaph-H-33" target="wJ7BnbMjkZVuSpHaph-H-34">
          <mxGeometry relative="1" as="geometry" />
        </mxCell>
        <mxCell id="wJ7BnbMjkZVuSpHaph-H-31" style="edgeStyle=orthogonalEdgeStyle;rounded=0;orthogonalLoop=1;jettySize=auto;html=1;exitX=0;exitY=0.5;exitDx=0;exitDy=0;" edge="1" parent="1" source="wJ7BnbMjkZVuSpHaph-H-33" target="wJ7BnbMjkZVuSpHaph-H-35">
          <mxGeometry relative="1" as="geometry" />
        </mxCell>
        <mxCell id="wJ7BnbMjkZVuSpHaph-H-32" style="edgeStyle=orthogonalEdgeStyle;rounded=0;orthogonalLoop=1;jettySize=auto;html=1;exitX=1;exitY=0.5;exitDx=0;exitDy=0;" edge="1" parent="1" source="wJ7BnbMjkZVuSpHaph-H-33" target="wJ7BnbMjkZVuSpHaph-H-36">
          <mxGeometry relative="1" as="geometry" />
        </mxCell>
        <mxCell id="wJ7BnbMjkZVuSpHaph-H-33" value="Re cattolici e vescovi" style="ellipse;whiteSpace=wrap;html=1;" vertex="1" parent="1">
          <mxGeometry x="320" y="1030" width="120" height="80" as="geometry" />
        </mxCell>
        <mxCell id="wJ7BnbMjkZVuSpHaph-H-34" value="- Re convertiti dalle potenze celesti e vari re convertiti: Clodoveo/Clotilde" style="rounded=0;whiteSpace=wrap;html=1;" vertex="1" parent="1">
          <mxGeometry x="50" y="1180" width="120" height="80" as="geometry" />
        </mxCell>
        <mxCell id="wJ7BnbMjkZVuSpHaph-H-35" value="Barbarizzazione della religione: mentalità poco interessata agli aspetti spirituali&lt;br&gt;&lt;br&gt;- Dio onnipotente: salva gli amici e uccide i nemici" style="rounded=0;whiteSpace=wrap;html=1;" vertex="1" parent="1">
          <mxGeometry x="210" y="1169" width="170" height="110" as="geometry" />
        </mxCell>
        <mxCell id="wJ7BnbMjkZVuSpHaph-H-36" value="Figura centrale = vescovo&lt;br&gt;- Aiutata da collaboratori&lt;br&gt;- Basata su diocesi&lt;br&gt;- A capo il papa&lt;br&gt;- Fonti battesimali e luoghi di incontro per la comunità" style="rounded=0;whiteSpace=wrap;html=1;" vertex="1" parent="1">
          <mxGeometry x="460" y="1165" width="150" height="110" as="geometry" />
        </mxCell>
      </root>
    </mxGraphModel>
  </diagram>
</mxfile>
